<?xml version="1.0" standalone="no"?>
<!DOCTYPE svg PUBLIC "-//W3C//DTD SVG 20010904//EN"
 "http://www.w3.org/TR/2001/REC-SVG-20010904/DTD/svg10.dtd">
<svg version="1.0" xmlns="http://www.w3.org/2000/svg"
 width="736.000000pt" height="731.000000pt" viewBox="0 0 736.000000 731.000000"
 preserveAspectRatio="xMidYMid meet">

<g transform="translate(0.000000,731.000000) scale(0.100000,-0.100000)"
fill="#ffffff" stroke="none">
<path d="M3485 6714 c-16 -2 -79 -9 -140 -15 -187 -18 -436 -76 -647 -148
-596 -206 -1141 -601 -1504 -1092 -120 -162 -152 -211 -232 -354 -229 -410
-346 -858 -359 -1381 -8 -320 11 -506 83 -814 99 -421 316 -862 588 -1190 350
-425 864 -779 1391 -959 199 -68 552 -141 681 -141 l64 0 0 908 0 907 -86 18
c-358 74 -726 279 -970 539 -111 119 -216 249 -211 261 2 7 94 99 204 204
l200 192 52 -79 c110 -164 239 -292 401 -395 119 -76 300 -145 378 -145 l32 0
-2 346 -3 346 -121 33 c-357 98 -577 228 -869 517 l-170 167 204 205 205 205
38 -52 c58 -78 216 -237 294 -295 111 -84 324 -182 396 -182 l28 0 0 945 0
945 268 0 269 0 6 -162 c3 -90 7 -514 7 -943 1 -429 3 -782 6 -784 21 -21 247
69 359 144 104 69 244 205 332 322 l46 62 206 -204 205 -203 -79 -84 c-77 -80
-231 -227 -271 -258 -243 -190 -454 -292 -761 -370 l-42 -11 -3 -342 c-2 -188
0 -346 4 -351 12 -15 190 43 303 99 61 30 141 78 180 107 97 73 219 198 290
297 33 46 67 92 75 102 14 17 28 5 220 -176 112 -106 206 -197 207 -202 2 -4
-52 -69 -120 -143 -322 -353 -627 -546 -1022 -645 l-130 -32 -3 -912 -2 -911
57 6 c734 77 1375 382 1885 897 253 254 406 473 567 807 149 310 237 613 276
960 24 207 17 663 -13 835 -81 461 -202 797 -409 1129 -478 770 -1325 1318
-2231 1446 -139 20 -529 35 -607 24z m-973 -1251 c97 -95 102 -102 83 -114
-11 -7 -51 -37 -90 -68 -427 -341 -687 -745 -791 -1234 -36 -166 -45 -505 -19
-673 56 -360 208 -695 441 -975 194 -233 521 -457 814 -559 l105 -36 3 -294
c1 -162 -1 -297 -5 -301 -5 -4 -71 14 -148 40 -382 131 -665 293 -947 545
-462 411 -737 929 -822 1544 -31 218 -18 575 29 812 53 275 169 574 307 794
66 106 207 292 301 397 99 112 318 320 401 382 l59 44 87 -101 c49 -56 135
-147 192 -203z m2783 171 c390 -340 622 -659 784 -1074 167 -429 213 -895 130
-1341 -100 -541 -336 -985 -725 -1358 -300 -289 -722 -535 -1078 -631 -39 -10
-79 -22 -89 -26 -16 -6 -17 14 -17 293 l0 299 58 18 c101 32 281 114 381 173
358 214 647 548 806 932 100 243 135 404 142 657 20 678 -257 1246 -834 1710
l-93 75 119 127 c65 70 149 162 186 204 39 46 72 75 79 71 6 -4 74 -62 151
-129z"/>
</g>
</svg>
