<?xml version="1.0" standalone="no"?>
<!DOCTYPE svg PUBLIC "-//W3C//DTD SVG 20010904//EN"
 "http://www.w3.org/TR/2001/REC-SVG-20010904/DTD/svg10.dtd">
<svg version="1.0" xmlns="http://www.w3.org/2000/svg"
 width="1024.000000pt" height="1024.000000pt" viewBox="0 0 1024.000000 1024.000000"
 preserveAspectRatio="xMidYMid meet">
<metadata>
Created by potrace 1.16, written by Peter Selinger 2001-2019
</metadata>
<g transform="translate(0.000000,1024.000000) scale(0.100000,-0.100000)"
fill="#ffffff" stroke="none">
<path d="M4945 8710 c-180 -7 -241 -14 -455 -51 -342 -60 -743 -199 -1060
-369 -364 -195 -602 -366 -874 -630 -476 -463 -795 -988 -972 -1603 -35 -121
-93 -419 -116 -588 -16 -126 -16 -662 0 -794 35 -274 93 -546 162 -759 165
-506 441 -963 828 -1367 433 -454 1092 -833 1724 -994 306 -78 521 -106 863
-112 383 -7 657 24 1004 112 645 163 1325 562 1758 1031 500 542 794 1138 917
1859 40 233 49 378 43 698 -8 431 -49 680 -179 1077 -360 1104 -1315 2010
-2483 2356 -361 107 -741 151 -1160 134z m600 -618 c678 -106 1354 -461 1824
-958 127 -134 206 -233 316 -399 266 -398 426 -853 481 -1365 19 -187 14 -541
-11 -720 -22 -157 -78 -402 -122 -535 -120 -362 -336 -751 -560 -1009 -446
-511 -1041 -865 -1686 -1001 -133 -28 -303 -55 -354 -55 l-33 0 0 895 0 895
23 4 c507 108 854 328 1234 782 l41 50 -219 204 c-120 113 -223 206 -228 208
-5 2 -28 -25 -51 -60 -145 -213 -318 -372 -515 -470 -70 -35 -243 -98 -271
-98 -12 0 -14 50 -14 333 l0 333 78 18 c190 45 406 138 564 243 140 93 234
173 387 327 l144 144 -218 214 c-120 117 -221 213 -225 213 -4 0 -29 -28 -54
-62 -96 -131 -260 -285 -375 -352 -66 -39 -224 -107 -268 -115 l-33 -5 0 949
0 950 -290 0 -290 0 0 -949 0 -949 -55 14 c-81 21 -193 75 -293 140 -96 62
-258 218 -339 326 l-50 67 -215 -219 -215 -219 161 -164 c209 -213 334 -307
541 -408 110 -53 345 -135 418 -145 l47 -7 0 -338 c0 -187 -3 -339 -6 -339
-24 0 -144 38 -214 68 -215 91 -407 253 -550 464 -35 51 -65 95 -66 97 -5 6
-66 -50 -263 -240 l-183 -178 90 -108 c311 -372 631 -581 1052 -688 54 -14
108 -25 119 -25 l21 0 0 -900 0 -900 -22 0 c-114 0 -513 85 -698 148 -372 127
-743 345 -1074 631 -349 302 -656 769 -820 1250 -190 556 -213 1154 -67 1756
189 776 740 1474 1499 1899 334 187 795 336 1157 375 156 16 600 6 750 -17z"/>
<path d="M6484 7127 c-44 -50 -134 -149 -202 -218 l-122 -126 72 -58 c316
-253 522 -494 667 -784 154 -305 234 -718 201 -1031 -31 -298 -113 -553 -255
-794 -214 -364 -534 -648 -910 -807 -66 -28 -141 -56 -167 -62 l-48 -12 0
-317 c0 -175 2 -318 4 -318 12 0 249 74 311 97 100 37 291 133 428 216 443
269 795 654 998 1094 93 201 181 512 215 763 23 165 23 483 1 633 -60 397
-199 769 -397 1062 -171 253 -338 432 -656 702 l-62 53 -78 -93z"/>
<path d="M3610 7172 c-116 -95 -276 -241 -349 -318 -183 -193 -375 -460 -476
-663 -191 -384 -285 -897 -245 -1336 65 -703 389 -1300 950 -1751 273 -220
579 -374 988 -499 l22 -6 -2 321 -3 321 -102 34 c-238 80 -487 234 -692 430
-210 201 -386 483 -485 775 -217 644 -59 1378 411 1905 106 119 190 198 336
313 l107 86 -153 155 c-84 86 -175 182 -201 214 -27 31 -51 57 -55 57 -3 -1
-26 -17 -51 -38z"/>
</g>
</svg>
